<svg width="13" height="13" viewBox="0 0 13 13" fill="none" xmlns="http://www.w3.org/2000/svg">
<path d="M12.918 0.62C12.8165 0.375651 12.6223 0.181475 12.378 0.0799999C12.2578 0.028759 12.1287 0.00157999 11.998 0H1.99799C1.73277 0 1.47842 0.105357 1.29088 0.292893C1.10334 0.48043 0.997986 0.734784 0.997986 1C0.997986 1.26522 1.10334 1.51957 1.29088 1.70711C1.47842 1.89464 1.73277 2 1.99799 2H9.58799L1.28799 10.29C1.19426 10.383 1.11986 10.4936 1.06909 10.6154C1.01833 10.7373 0.992188 10.868 0.992188 11C0.992188 11.132 1.01833 11.2627 1.06909 11.3846C1.11986 11.5064 1.19426 11.617 1.28799 11.71C1.38095 11.8037 1.49155 11.8781 1.61341 11.9289C1.73527 11.9797 1.86597 12.0058 1.99799 12.0058C2.13 12.0058 2.2607 11.9797 2.38256 11.9289C2.50442 11.8781 2.61502 11.8037 2.70799 11.71L10.998 3.41V11C10.998 11.2652 11.1033 11.5196 11.2909 11.7071C11.4784 11.8946 11.7328 12 11.998 12C12.2632 12 12.5176 11.8946 12.7051 11.7071C12.8926 11.5196 12.998 11.2652 12.998 11V1C12.9964 0.869323 12.9692 0.740222 12.918 0.62Z" fill="#767676"/>
</svg>
