<svg width="32" height="32" viewBox="0 0 32 32" fill="none" xmlns="http://www.w3.org/2000/svg">
<path d="M19.6266 11.72L13.9066 17.4533L11.7066 15.2533C11.5871 15.1137 11.44 15.0004 11.2746 14.9204C11.1092 14.8403 10.929 14.7954 10.7454 14.7883C10.5617 14.7812 10.3786 14.8121 10.2075 14.8791C10.0364 14.9462 9.88104 15.0478 9.7511 15.1778C9.62116 15.3077 9.51948 15.4631 9.45245 15.6342C9.38542 15.8053 9.35447 15.9884 9.36157 16.1721C9.36866 16.3557 9.41363 16.5359 9.49366 16.7013C9.5737 16.8667 9.68706 17.0138 9.82663 17.1333L12.96 20.28C13.0846 20.4036 13.2323 20.5013 13.3948 20.5677C13.5572 20.634 13.7312 20.6677 13.9066 20.6667C14.2564 20.6652 14.5916 20.5263 14.84 20.28L21.5066 13.6133C21.6316 13.4894 21.7308 13.3419 21.7985 13.1794C21.8662 13.0169 21.901 12.8427 21.901 12.6667C21.901 12.4906 21.8662 12.3164 21.7985 12.1539C21.7308 11.9914 21.6316 11.8439 21.5066 11.72C21.2568 11.4717 20.9189 11.3323 20.5666 11.3323C20.2144 11.3323 19.8764 11.4717 19.6266 11.72ZM16 2.66666C13.3629 2.66666 10.785 3.44864 8.59236 4.91373C6.39971 6.37881 4.69074 8.4612 3.68157 10.8975C2.6724 13.3339 2.40836 16.0148 2.92283 18.6012C3.4373 21.1876 4.70717 23.5634 6.57188 25.4281C8.43658 27.2928 10.8123 28.5627 13.3988 29.0771C15.9852 29.5916 18.6661 29.3276 21.1024 28.3184C23.5388 27.3092 25.6211 25.6002 27.0862 23.4076C28.5513 21.2149 29.3333 18.6371 29.3333 16C29.3333 14.249 28.9884 12.5152 28.3184 10.8975C27.6483 9.27987 26.6662 7.81001 25.4281 6.5719C24.1899 5.33379 22.7201 4.35166 21.1024 3.6816C19.4847 3.01153 17.7509 2.66666 16 2.66666V2.66666ZM16 26.6667C13.8903 26.6667 11.828 26.0411 10.0739 24.869C8.31976 23.6969 6.95259 22.031 6.14525 20.0819C5.33792 18.1329 5.12668 15.9882 5.53826 13.919C5.94983 11.8499 6.96573 9.94928 8.45749 8.45752C9.94925 6.96576 11.8499 5.94986 13.919 5.53828C15.9881 5.1267 18.1328 5.33794 20.0819 6.14528C22.031 6.95261 23.6969 8.31978 24.869 10.0739C26.041 11.828 26.6666 13.8903 26.6666 16C26.6666 18.829 25.5428 21.5421 23.5424 23.5425C21.5421 25.5429 18.8289 26.6667 16 26.6667V26.6667Z" fill="#FC653C"/>
</svg>
