<svg width="21" height="20" viewBox="0 0 21 20" fill="none" xmlns="http://www.w3.org/2000/svg">
<path d="M2.61715 9.75391C2.61715 9.75391 3.4073 10.9147 5.0634 11.8973C5.0634 11.8973 3.86398 1.76051 11.6789 0C9.67672 7.34848 14.2258 9.42086 15.8841 5.53852C18.6533 9.23582 16.5507 12.4615 16.5507 12.4615C17.6862 12.6251 18.64 11.3846 18.64 11.3846C18.6486 11.5374 18.6533 11.6913 18.6533 11.8462C18.6534 16.3494 15.0028 20 10.4995 20C5.99629 20 2.3457 16.3494 2.3457 11.8462C2.3457 11.1228 2.44039 10.4216 2.61715 9.75391Z" fill="#FF6536"/>
<path d="M18.6405 11.3846C18.6405 11.3846 17.6867 12.6251 16.5512 12.4615C16.5512 12.4615 18.6538 9.23582 15.8846 5.53852C14.2263 9.42086 9.67723 7.34848 11.6795 0C11.2609 0.0942969 10.8684 0.212773 10.5 0.352266V20C15.0032 20 18.6538 16.3494 18.6538 11.8462C18.6538 11.6912 18.6491 11.5374 18.6405 11.3846Z" fill="#FF421D"/>
<path d="M6.92407 16.4241C6.92407 18.399 8.52509 20 10.5 20C12.4749 20 14.0759 18.399 14.0759 16.4241C14.0759 15.367 13.6173 14.4171 12.8881 13.7624C11.5056 15.6407 9.53532 12.7915 11.0708 10.7108C11.0708 10.7108 6.92407 11.2304 6.92407 16.4241Z" fill="#FBBF00"/>
<path d="M14.0759 16.4241C14.0759 15.367 13.6173 14.4171 12.8881 13.7624C11.5055 15.6407 9.53531 12.7915 11.0708 10.7108C11.0708 10.7108 10.8455 10.7391 10.5 10.8481V20C12.4749 20 14.0759 18.399 14.0759 16.4241Z" fill="#FFA900"/>
</svg>
