<svg width="60" height="61" viewBox="0 0 60 61" fill="none" xmlns="http://www.w3.org/2000/svg">
<g clip-path="url(#clip0_1_58)">
<path d="M58.8939 24.0824L52.7001 23.3948C52.2551 21.9351 51.669 20.5222 50.9502 19.1761L54.8427 14.311C55.24 13.8138 55.2001 13.0974 54.7502 12.6473L47.6777 5.58228C47.2276 5.13239 46.5112 5.09255 46.014 5.48982L41.1488 9.38104C39.8027 8.66221 38.3898 8.07603 36.9301 7.63107L36.2425 1.43735C36.1725 0.803949 35.6373 0.324768 35.0001 0.324768H25.0001C24.363 0.324768 23.8277 0.803949 23.7576 1.43723L23.07 7.62474C21.6104 8.06982 20.1974 8.65588 18.8513 9.37471L13.9862 5.4822C13.489 5.08493 12.7726 5.12478 12.3225 5.57466L5.25001 12.6473C4.80048 13.0978 4.76122 13.8141 5.15872 14.311L9.05627 19.1761C8.33744 20.5222 7.75127 21.9351 7.3063 23.3948L1.11258 24.0824C0.479181 24.1524 0 24.6876 0 25.3248V35.3248C0 35.9619 0.479181 36.4972 1.11246 36.5673L7.29998 37.2548C7.74505 38.7145 8.33111 40.1275 9.04994 41.4736L5.15743 46.3386C4.76017 46.8359 4.80001 47.5522 5.24989 48.0024L12.3224 55.0749C12.7745 55.5225 13.4908 55.5591 13.9861 55.1598L18.8512 51.2686C20.1973 51.9874 21.6102 52.5736 23.0699 53.0186L23.7575 59.2123C23.8275 59.8456 24.3627 60.3249 25 60.3248H35C35.635 60.3251 36.1694 59.8493 36.2425 59.2185L36.9301 53.0248C38.3898 52.5797 39.8027 51.9937 41.1488 51.2748L46.0139 55.1673C46.5111 55.5646 47.2275 55.5248 47.6776 55.0749L54.7426 48.0024C55.1925 47.5522 55.2323 46.8359 54.8351 46.3386L50.9439 41.4736C51.6627 40.1275 52.2489 38.7145 52.6938 37.2548L58.8875 36.5673C59.5208 36.4972 60.0001 35.962 60 35.3248V25.3248C60.0005 24.6897 59.5247 24.1554 58.8939 24.0824ZM57.5004 34.2061H57.5002L51.5914 34.8636C51.0789 34.9206 50.6539 35.2864 50.5214 35.7848C50.04 37.6018 49.3181 39.3464 48.3751 40.9724C48.116 41.4186 48.1577 41.9782 48.4801 42.3811L52.1964 47.0261L46.7076 52.5148L42.0627 48.7985C41.6598 48.4762 41.1002 48.4344 40.6539 48.6935C39.028 49.6365 37.2834 50.3583 35.4664 50.8398C34.968 50.9723 34.6021 51.3973 34.5452 51.9099L33.8876 57.8249H26.1251L25.4614 51.9099C25.4044 51.3973 25.0386 50.9724 24.5402 50.8398C22.7232 50.3584 20.9786 49.6365 19.3526 48.6935C18.9064 48.4344 18.3468 48.4762 17.9439 48.7985L13.2989 52.5148L7.81021 47.0261L11.5265 42.3873C11.8489 41.9844 11.8906 41.4248 11.6315 40.9786C10.6885 39.3526 9.9667 37.608 9.48518 35.791C9.35275 35.2926 8.92771 34.9268 8.41513 34.8698L2.50008 34.2123V26.4498L8.41513 25.786C8.92771 25.7291 9.35264 25.3632 9.48518 24.8648C9.96658 23.0478 10.6885 21.3032 11.6315 19.6773C11.8906 19.231 11.8489 18.6714 11.5265 18.2686L7.81021 13.6236L13.2989 8.13486L17.9502 11.8511C18.3531 12.1735 18.9127 12.2152 19.3589 11.9561C20.9849 11.0131 22.7295 10.2914 24.5465 9.80983C25.0449 9.6774 25.4108 9.25236 25.4677 8.73978L26.1252 2.82473H33.8816L34.5391 8.73978C34.596 9.25236 34.9619 9.67729 35.4603 9.80983C37.2773 10.2912 39.0219 11.0131 40.6479 11.9561C41.0941 12.2152 41.6537 12.1735 42.0566 11.8511L46.7015 8.13486L52.1903 13.6299L48.474 18.2749C48.1516 18.6778 48.1099 19.2373 48.369 19.6836C49.312 21.3096 50.0338 23.0541 50.5153 24.8711C50.6477 25.3695 51.0728 25.7354 51.5853 25.7924L57.5004 26.4499V34.2061Z" fill="white"/>
<path d="M44.7692 22.2821C40.0506 13.8484 29.3895 10.8369 20.9566 15.5557C12.5236 20.2745 9.51229 30.9368 14.2308 39.3705C14.2867 39.4702 14.356 39.5618 14.4368 39.6428C14.9245 40.1313 15.7158 40.1319 16.2043 39.6442L24.369 31.4787L27.2534 35.3259C27.2889 35.3731 27.3276 35.4179 27.3694 35.4596C27.8576 35.9477 28.6488 35.9477 29.1369 35.4596L37.0017 27.5941V32.0762H39.5012V24.5769H39.501C39.501 23.8867 38.9416 23.3272 38.2515 23.327H30.7529V25.8267H35.2346L28.3883 32.6736L25.5038 28.8264C25.287 28.5354 24.9545 28.3529 24.5927 28.3264C24.2312 28.3045 23.8776 28.4378 23.6203 28.6926L15.6742 36.6383C13.5256 31.5241 14.3809 25.6409 17.897 21.3505C23.1371 14.956 32.5685 14.0206 38.9625 19.2613C45.3564 24.5019 46.2918 33.9341 41.0515 40.3286C40.5685 40.9179 40.0498 41.4606 39.5014 41.9566V34.576H37.0017V43.7824C36.2008 44.2482 35.3637 44.6351 34.5022 44.9414V37.0757H32.0027V45.5943C31.1772 45.7354 30.3409 45.8076 29.5032 45.8096V40.8253H27.0036V45.6065C26.1589 45.466 25.3225 45.2518 24.5041 44.9638V38.3256H22.0044V43.8135C21.3058 43.41 20.6302 42.9458 19.9859 42.4178L18.3975 44.3488C21.5287 46.9178 25.4531 48.3228 29.503 48.3248C32.4935 48.3243 35.4338 47.5573 38.0434 46.0969C46.4764 41.3781 49.4877 30.7158 44.7692 22.2821Z" fill="white"/>
</g>
<defs>
<clipPath id="clip0_1_58">
<rect width="60" height="60" fill="white" transform="translate(0 0.324768)"/>
</clipPath>
</defs>
</svg>
