<svg width="12" height="12" viewBox="0 0 12 12" fill="none" xmlns="http://www.w3.org/2000/svg">
<g clip-path="url(#clip0_2_692)">
<path d="M6 1.08138C7.60302 1.08138 7.79119 1.08853 8.42478 1.11711C9.01073 1.14331 9.32752 1.24097 9.53951 1.32433C9.82057 1.4339 10.0207 1.56252 10.2303 1.77213C10.4399 1.98174 10.5709 2.18182 10.6781 2.46288C10.759 2.67487 10.8591 2.99166 10.8853 3.57761C10.9139 4.21119 10.921 4.39936 10.921 6.00238C10.921 7.6054 10.9139 7.79357 10.8853 8.42715C10.8591 9.0131 10.7614 9.32989 10.6781 9.54188C10.5685 9.82295 10.4399 10.023 10.2303 10.2326C10.0207 10.4422 9.82057 10.5732 9.53951 10.6804C9.32752 10.7614 9.01073 10.8615 8.42478 10.8877C7.79119 10.9162 7.60302 10.9234 6 10.9234C4.39699 10.9234 4.20882 10.9162 3.57523 10.8877C2.98928 10.8615 2.67249 10.7638 2.4605 10.6804C2.17944 10.5709 1.97936 10.4422 1.76975 10.2326C1.56014 10.023 1.42914 9.82295 1.32195 9.54188C1.24097 9.32989 1.14093 9.0131 1.11473 8.42715C1.08615 7.79357 1.079 7.6054 1.079 6.00238C1.079 4.39936 1.08615 4.21119 1.11473 3.57761C1.14093 2.99166 1.23859 2.67487 1.32195 2.46288C1.43152 2.18182 1.56014 1.98174 1.76975 1.77213C1.97936 1.56252 2.17944 1.43152 2.4605 1.32433C2.67249 1.24335 2.98928 1.14331 3.57523 1.11711C4.20882 1.08615 4.39937 1.08138 6 1.08138ZM6 0C4.37079 0 4.16594 0.00714569 3.52521 0.0357285C2.88686 0.0643112 2.45097 0.166733 2.06987 0.31441C1.67448 0.466852 1.34101 0.674077 1.00754 1.00754C0.674077 1.34101 0.469234 1.67686 0.314411 2.06987C0.166733 2.45097 0.0643113 2.88686 0.0357285 3.52759C0.0071457 4.16594 0 4.37078 0 6C0 7.62922 0.0071457 7.83406 0.0357285 8.47479C0.0643113 9.11314 0.166733 9.54903 0.314411 9.93251C0.466852 10.3279 0.674077 10.6614 1.00754 10.9948C1.34101 11.3283 1.67686 11.5331 2.06987 11.688C2.45097 11.8356 2.88686 11.9381 3.52759 11.9667C4.16832 11.9952 4.37079 12.0024 6.00239 12.0024C7.63399 12.0024 7.83645 11.9952 8.47718 11.9667C9.11553 11.9381 9.55142 11.8356 9.9349 11.688C10.3303 11.5355 10.6638 11.3283 10.9972 10.9948C11.3307 10.6614 11.5355 10.3255 11.6904 9.93251C11.838 9.55141 11.9405 9.11552 11.969 8.47479C11.9976 7.83406 12.0048 7.6316 12.0048 6C12.0048 4.3684 11.9976 4.16594 11.969 3.52521C11.9405 2.88686 11.838 2.45097 11.6904 2.06749C11.5379 1.67209 11.3307 1.33863 10.9972 1.00516C10.6638 0.671695 10.3279 0.466852 9.9349 0.312029C9.5538 0.164351 9.11791 0.0619293 8.47718 0.0333466C7.83407 0.00714569 7.62922 0 6 0Z" fill="#BABABA"/>
<path d="M6 1.08138C7.60302 1.08138 7.79119 1.08853 8.42478 1.11711C9.01073 1.14331 9.32752 1.24097 9.53951 1.32433C9.82057 1.4339 10.0207 1.56252 10.2303 1.77213C10.4399 1.98174 10.5709 2.18182 10.6781 2.46288C10.759 2.67487 10.8591 2.99166 10.8853 3.57761C10.9139 4.21119 10.921 4.39936 10.921 6.00238C10.921 7.6054 10.9139 7.79357 10.8853 8.42715C10.8591 9.0131 10.7614 9.32989 10.6781 9.54188C10.5685 9.82295 10.4399 10.023 10.2303 10.2326C10.0207 10.4422 9.82057 10.5732 9.53951 10.6804C9.32752 10.7614 9.01073 10.8615 8.42478 10.8877C7.79119 10.9162 7.60302 10.9234 6 10.9234C4.39699 10.9234 4.20882 10.9162 3.57523 10.8877C2.98928 10.8615 2.67249 10.7638 2.4605 10.6804C2.17944 10.5709 1.97936 10.4422 1.76975 10.2326C1.56014 10.023 1.42914 9.82295 1.32195 9.54188C1.24097 9.32989 1.14093 9.0131 1.11473 8.42715C1.08615 7.79357 1.079 7.6054 1.079 6.00238C1.079 4.39936 1.08615 4.21119 1.11473 3.57761C1.14093 2.99166 1.23859 2.67487 1.32195 2.46288C1.43152 2.18182 1.56014 1.98174 1.76975 1.77213C1.97936 1.56252 2.17944 1.43152 2.4605 1.32433C2.67249 1.24335 2.98928 1.14331 3.57523 1.11711C4.20882 1.08615 4.39937 1.08138 6 1.08138Z" fill="#BABABA"/>
<path d="M5.9999 2.92017C4.29923 2.92017 2.91772 4.29928 2.91772 6.00234C2.91772 7.7054 4.29684 9.08451 5.9999 9.08451C7.70296 9.08451 9.08208 7.7054 9.08208 6.00234C9.08208 4.29928 7.70296 2.92017 5.9999 2.92017ZM5.9999 8.00075C4.8947 8.00075 3.99911 7.10516 3.99911 5.99996C3.99911 4.89476 4.8947 3.99917 5.9999 3.99917C7.1051 3.99917 8.00069 4.89476 8.00069 5.99996C8.00069 7.10516 7.1051 8.00075 5.9999 8.00075Z" fill="#484848"/>
<path d="M9.20371 3.51569C9.60098 3.51569 9.92304 3.19364 9.92304 2.79636C9.92304 2.39908 9.60098 2.07703 9.20371 2.07703C8.80643 2.07703 8.48438 2.39908 8.48438 2.79636C8.48438 3.19364 8.80643 3.51569 9.20371 3.51569Z" fill="#484848"/>
</g>
<defs>
<clipPath id="clip0_2_692">
<rect width="12" height="12" fill="white"/>
</clipPath>
</defs>
</svg>
