<svg xmlns="http://www.w3.org/2000/svg" width="536px" height="1920px">
    <defs>
        <filter id="null">
            <feBlend mode="normal" in="SourceGraphic"/>
        </filter>
        <style>
            .logotext {
                fill: #32363F;
            }
            body.dark-mode .logotext {
                fill: #ffffff;
            }
        
            .e, .l {
                fill: #32363F;
            }
        
            .f {
                fill: #E87A2F;
            }
        
            .g, .k {
                fill: #E14B52;
            }
        
            .h, .j {
                fill: #E96336;
            }
        
            .i, .m {
                fill: #EDAC22;
            }
        
            .top-text {
                font-family: 'Poppins', Arial, sans-serif;
                font-size: 200px;
                font-weight: 600;
            }
        
            .bottom-text {
                font-family: 'Poppins', Arial, sans-serif;
                font-size: 200px;
                font-weight: 400;
                letter-spacing: .024em;
            }
        </style>
    </defs>
    <g id="b" data-name="Logo Icon">
        <g filter="url(#null)">
        <polygon class="k" points="180 201.0599975586 60 201.0599975586 120 134.0399780273 180 201.0599975586"/>
        <polygon class="h" points="180 201.0599975586 120 268.0799560547 0 268.0799560547 60 201.0599975586 180 201.0599975586"/>
        <polygon class="m" points="240 402.1199951172 120 402.1199951172 0 268.0799560547 120 268.0799560547 240 402.1199951172"/>
        <polygon class="f" points="240 402.1199951172 240 536.1599731445 180 469.1400146484 120 402.1199951172 240 402.1199951172"/>
        <polygon class="g" points="420 335.0999755859 360 402.1199951172 240 402.1199951172 300 335.0999755859 420 335.0999755859"/>
        <polygon class="e" points="300 335.0999755859 240 402.1199951172 120 268.0799560547 240 268.0799560547 300 335.0999755859"/>
        <polygon class="f" points="360 268.0799560547 300 335.0999755859 240 268.0799560547 360 268.0799560547"/>
        <polygon class="j" points="480 268.0799560547 420 335.0999755859 300 335.0999755859 360 268.0799560547 480 268.0799560547"/>
        <polygon class="l" points="480 268.0799560547 360 268.0799560547 300 201.0599975586 360 134.0399780273 420 201.0599975586 480 268.0799560547"/>
        <polygon class="i" points="360 134.0399780273 300 201.0599975586 240 268.0799560547 120 268.0799560547 180 201.0599975586 240 134.0399780273 360 134.0399780273"/>
        <polygon class="f" points="360 134.0399780273 240 134.0399780273 240 0 300 67.0199584961 360 134.0399780273"/>
        </g>
    </g>
    <g id="c" data-name="Layer 3">
        <text class="logotext" transform="translate(581.5543212891 247.2284240723)"><tspan class="top-text"><tspan x="0" y="0">Callowhill </tspan></tspan><tspan class="bottom-text"><tspan x="0" y="180">Web Designs</tspan></tspan></text>
    </g>
</svg>
