<svg xmlns="http://www.w3.org/2000/svg" width="32" height="42" fill="none"><g clip-path="url(#a)"><path d="M23.625 29.392c1.147-.664 1.438-2.464 2.37-3.395.93-.931 2.73-1.221 3.394-2.369.655-1.13.014-2.833.36-4.125.332-1.251 1.677-2.4 1.677-3.753 0-1.354-1.416-2.504-1.75-3.751-.345-1.292.296-2.994-.358-4.126-.664-1.146-2.464-1.437-3.395-2.368-.931-.93-1.221-2.732-2.368-3.395-1.131-.655-2.834-.014-4.125-.359C18.252 1.417 17.104 0 15.75 0s-2.502 1.417-3.749 1.75c-1.296.345-2.994-.296-4.128.358-1.146.664-1.437 2.464-2.368 3.395-.93.93-2.732 1.221-3.395 2.368-.655 1.128-.013 2.834-.359 4.122-.334 1.255-1.75 2.403-1.75 3.757s1.416 2.504 1.75 3.751c.345 1.292-.297 2.994.357 4.126.665 1.146 2.464 1.434 3.395 2.369.93.93 1.221 2.731 2.369 3.396 1.13.654 2.832.013 4.124.358 1.252.33 2.4 1.75 3.754 1.75s2.504-1.417 3.752-1.75c1.293-.342 2.991.298 4.123-.358ZM9.187 15.75a6.558 6.558 0 0 1 6.563-6.563 6.558 6.558 0 0 1 6.563 6.563 6.563 6.563 0 0 1-13.125 0ZM.142 35.536a1.967 1.967 0 0 0 2.214 2.658l3.707-.742L7.82 40.92a1.948 1.948 0 0 0 1.836 1.078 1.946 1.946 0 0 0 1.742-1.22l2.755-6.734a18.326 18.326 0 0 1-11.337-5.246L.141 35.536ZM28.678 28.8a18.308 18.308 0 0 1-11.337 5.246l2.755 6.733c.295.722.963 1.19 1.742 1.22.031-.074-.01 0 .089 0 .746 0 1.413-.408 1.751-1.078l1.758-3.468 3.707.741a1.967 1.967 0 0 0 2.215-2.658l-2.68-6.736Z" fill="#fff"/></g><defs><clipPath id="a"><path fill="#fff" d="M0 0h31.5v42H0z"/></clipPath></defs></svg>