<svg xmlns="http://www.w3.org/2000/svg" width="42" height="42" fill="none"><g clip-path="url(#a)"><path d="M21.025 0a2.61 2.61 0 0 1 1.296.334l16.767 7.092c.919.39 1.534 1.195 1.591 2.262.468 7.834-2.395 24.921-18.326 31.96a2.81 2.81 0 0 1-1.328.352c-.476.008-.935-.123-1.411-.353C3.757 34.61.898 17.522 1.359 9.687c.059-1.066.678-1.872 1.597-2.26L19.72.333a2.64 2.64 0 0 1 1.305-.335Zm.803 29.81 8.048-8.187c2.297-2.37 2.157-6.316-.5-8.539-2.158-1.944-5.464-1.583-7.548.574l-.795.788-.861-.788c-2.01-2.157-5.39-2.518-7.621-.574-2.584 2.223-2.724 6.169-.427 8.54l7.908 8.186c.574.5 1.362.5 1.796 0Z" fill="#fff"/></g><defs><clipPath id="a"><path fill="#fff" d="M0 0h42v42H0z"/></clipPath></defs></svg>