<svg width="32" height="33" viewBox="0 0 32 33" fill="none" xmlns="http://www.w3.org/2000/svg">
<path d="M28.0932 22.94L25.3332 20.1133C24.7396 19.549 23.9907 19.1751 23.1829 19.0397C22.375 18.9042 21.5452 19.0135 20.7999 19.3533L19.5999 18.1533C21.014 16.2639 21.6598 13.9089 21.4073 11.5625C21.1548 9.21601 20.0228 7.05231 18.2391 5.50695C16.4555 3.96158 14.1526 3.14929 11.7941 3.23359C9.43563 3.3179 7.19664 4.29253 5.52786 5.96131C3.85909 7.63008 2.88445 9.86907 2.80015 12.2276C2.71585 14.5861 3.52814 16.8889 5.07351 18.6726C6.61887 20.4562 8.78257 21.5883 11.129 21.8407C13.4755 22.0932 15.8305 21.4474 17.7199 20.0333L18.9066 21.22C18.5267 21.9662 18.3905 22.8128 18.5173 23.6404C18.6441 24.4681 19.0274 25.2351 19.6132 25.8333L22.4399 28.66C23.1899 29.4091 24.2066 29.8298 25.2666 29.8298C26.3266 29.8298 27.3432 29.4091 28.0932 28.66C28.4742 28.2875 28.7769 27.8426 28.9836 27.3515C29.1903 26.8603 29.2967 26.3329 29.2967 25.8C29.2967 25.2672 29.1903 24.7397 28.9836 24.2486C28.7769 23.7574 28.4742 23.3125 28.0932 22.94V22.94ZM16.7866 17.2867C15.8536 18.2173 14.6656 18.8506 13.3729 19.1065C12.0801 19.3623 10.7406 19.2293 9.52337 18.7243C8.30618 18.2192 7.26599 17.3647 6.53419 16.2687C5.80239 15.1728 5.41182 13.8845 5.41182 12.5667C5.41182 11.2489 5.80239 9.96059 6.53419 8.86463C7.26599 7.76867 8.30618 6.91418 9.52337 6.4091C10.7406 5.90402 12.0801 5.77101 13.3729 6.02688C14.6656 6.28275 15.8536 6.91602 16.7866 7.84668C17.4074 8.46596 17.9 9.20163 18.2361 10.0116C18.5722 10.8215 18.7452 11.6898 18.7452 12.5667C18.7452 13.4436 18.5722 14.3119 18.2361 15.1218C17.9 15.9317 17.4074 16.6674 16.7866 17.2867V17.2867ZM26.2132 26.7133C26.0893 26.8383 25.9418 26.9375 25.7793 27.0052C25.6169 27.0729 25.4426 27.1077 25.2666 27.1077C25.0906 27.1077 24.9163 27.0729 24.7538 27.0052C24.5913 26.9375 24.4439 26.8383 24.3199 26.7133L21.4932 23.8867C21.3683 23.7627 21.2691 23.6153 21.2014 23.4528C21.1337 23.2903 21.0988 23.116 21.0988 22.94C21.0988 22.764 21.1337 22.5897 21.2014 22.4272C21.2691 22.2648 21.3683 22.1173 21.4932 21.9933C21.6172 21.8684 21.7647 21.7692 21.9271 21.7015C22.0896 21.6338 22.2639 21.5989 22.4399 21.5989C22.6159 21.5989 22.7902 21.6338 22.9527 21.7015C23.1152 21.7692 23.2626 21.8684 23.3866 21.9933L26.2132 24.82C26.3382 24.944 26.4374 25.0914 26.5051 25.2539C26.5728 25.4164 26.6076 25.5907 26.6076 25.7667C26.6076 25.9427 26.5728 26.117 26.5051 26.2794C26.4374 26.4419 26.3382 26.5894 26.2132 26.7133V26.7133Z" fill="#FC653C"/>
</svg>
