<svg width="32" height="33" viewBox="0 0 32 33" fill="none" xmlns="http://www.w3.org/2000/svg">
<path d="M3.33333 12.3133L15.3333 19.2467C15.536 19.3637 15.766 19.4253 16 19.4253C16.234 19.4253 16.464 19.3637 16.6667 19.2467L28.6667 12.3133C28.8682 12.197 29.0357 12.0299 29.1527 11.8288C29.2697 11.6276 29.3319 11.3994 29.3333 11.1667C29.3343 10.9317 29.2731 10.7007 29.156 10.497C29.039 10.2933 28.8701 10.1241 28.6667 10.0067L16.6667 3.08667C16.464 2.96964 16.234 2.90804 16 2.90804C15.766 2.90804 15.536 2.96964 15.3333 3.08667L3.33333 10.0067C3.12986 10.1241 2.96104 10.2933 2.84397 10.497C2.7269 10.7007 2.66573 10.9317 2.66667 11.1667C2.66807 11.3994 2.73035 11.6276 2.8473 11.8288C2.96425 12.0299 3.13182 12.197 3.33333 12.3133V12.3133ZM16 5.83333L25.3333 11.1667L16 16.5L6.66667 11.1667L16 5.83333ZM27.3333 15.3933L16 21.8333L4.66667 15.34C4.51449 15.2518 4.34637 15.1947 4.172 15.1718C3.99763 15.1488 3.82045 15.1607 3.65066 15.2065C3.48087 15.2524 3.32184 15.3314 3.18271 15.4389C3.04358 15.5465 2.92711 15.6806 2.84 15.8333C2.66617 16.1395 2.62048 16.502 2.7129 16.8417C2.80533 17.1814 3.02836 17.4708 3.33333 17.6467L15.3333 24.58C15.536 24.697 15.766 24.7586 16 24.7586C16.234 24.7586 16.464 24.697 16.6667 24.58L28.6667 17.6467C28.9716 17.4708 29.1947 17.1814 29.2871 16.8417C29.3795 16.502 29.3338 16.1395 29.16 15.8333C29.0729 15.6806 28.9564 15.5465 28.8173 15.4389C28.6782 15.3314 28.5191 15.2524 28.3493 15.2065C28.1796 15.1607 28.0024 15.1488 27.828 15.1718C27.6536 15.1947 27.4855 15.2518 27.3333 15.34V15.3933ZM27.3333 20.7267L16 27.1667L4.66667 20.6733C4.51449 20.5852 4.34637 20.528 4.172 20.5051C3.99763 20.4822 3.82045 20.494 3.65066 20.5398C3.48087 20.5857 3.32184 20.6647 3.18271 20.7723C3.04358 20.8798 2.92711 21.0139 2.84 21.1667C2.66617 21.4728 2.62048 21.8353 2.7129 22.175C2.80533 22.5147 3.02836 22.8041 3.33333 22.98L15.3333 29.9133C15.536 30.0304 15.766 30.092 16 30.092C16.234 30.092 16.464 30.0304 16.6667 29.9133L28.6667 22.98C28.9716 22.8041 29.1947 22.5147 29.2871 22.175C29.3795 21.8353 29.3338 21.4728 29.16 21.1667C29.0729 21.0139 28.9564 20.8798 28.8173 20.7723C28.6782 20.6647 28.5191 20.5857 28.3493 20.5398C28.1796 20.494 28.0024 20.4822 27.828 20.5051C27.6536 20.528 27.4855 20.5852 27.3333 20.6733V20.7267Z" fill="#FC653C"/>
</svg>
