<svg width="32" height="33" viewBox="0 0 32 33" fill="none" xmlns="http://www.w3.org/2000/svg">
<path d="M27.7733 10.26C26.692 8.23927 25.1134 6.52758 23.1866 5.28666V5.28666C21.4429 4.1649 19.4616 3.46525 17.4002 3.2433C15.3387 3.02135 13.2539 3.28322 11.3113 4.0081C9.36882 4.73298 7.6221 5.90089 6.20998 7.41905C4.79787 8.93721 3.75926 10.7638 3.17668 12.7536C2.5941 14.7435 2.48361 16.8417 2.85398 18.8818C3.22435 20.9218 4.06537 22.8473 5.31024 24.5054C6.5551 26.1635 8.16949 27.5084 10.0251 28.4333C11.8808 29.3582 13.9266 29.8375 16 29.8333H16.3866C18.652 29.7665 20.863 29.1233 22.8107 27.9644C24.7585 26.8056 26.3787 25.1694 27.5183 23.2104C28.658 21.2514 29.2795 19.0342 29.3241 16.7682C29.3687 14.5023 28.8349 12.2624 27.7733 10.26V10.26ZM14.6666 27.0733C12.1041 26.7321 9.75278 25.4719 8.04975 23.5271C6.34673 21.5822 5.40793 19.0851 5.40793 16.5C5.40793 13.9149 6.34673 11.4178 8.04975 9.47293C9.75278 7.52809 12.1041 6.26789 14.6666 5.92666V27.0733ZM17.3333 5.92666C18.486 6.07411 19.6072 6.40732 20.6533 6.91333L17.3333 12.66V5.92666ZM17.3333 17.9267L22.8933 8.36666C23.7131 9.07059 24.4231 9.893 25 10.8067L17.3333 24.0867V17.9267ZM18.8666 26.7L26.3199 13.8333C26.5453 14.7045 26.6618 15.6002 26.6666 16.5C26.665 18.828 25.9017 21.0915 24.4934 22.9452C23.0851 24.7989 21.109 26.141 18.8666 26.7667V26.7Z" fill="#FC653C"/>
</svg>
