<svg width="32" height="33" viewBox="0 0 32 33" fill="none" xmlns="http://www.w3.org/2000/svg">
<path d="M21.3334 13.8333H18.6667V11.1667C18.6667 10.813 18.5262 10.4739 18.2762 10.2239C18.0262 9.97381 17.687 9.83333 17.3334 9.83333H10.6667C10.3131 9.83333 9.97396 9.97381 9.72392 10.2239C9.47387 10.4739 9.33339 10.813 9.33339 11.1667V17.8333C9.33339 18.187 9.47387 18.5261 9.72392 18.7761C9.97396 19.0262 10.3131 19.1667 10.6667 19.1667H13.3334V21.8333C13.3334 22.187 13.4739 22.5261 13.7239 22.7761C13.974 23.0262 14.3131 23.1667 14.6667 23.1667H21.3334C21.687 23.1667 22.0262 23.0262 22.2762 22.7761C22.5263 22.5261 22.6667 22.187 22.6667 21.8333V15.1667C22.6667 14.813 22.5263 14.4739 22.2762 14.2239C22.0262 13.9738 21.687 13.8333 21.3334 13.8333ZM13.3334 15.1667V16.5H12.0001V12.5H16.0001V13.8333H14.6667C14.3131 13.8333 13.974 13.9738 13.7239 14.2239C13.4739 14.4739 13.3334 14.813 13.3334 15.1667ZM20.0001 20.5H16.0001V16.5H20.0001V20.5ZM28.0001 24.8733V8.12666C28.3607 7.92609 28.6698 7.64456 28.9031 7.30424C29.1365 6.96392 29.2877 6.57409 29.3448 6.16543C29.4019 5.75678 29.3634 5.34043 29.2324 4.94917C29.1013 4.55791 28.8812 4.2024 28.5894 3.91063C28.2977 3.61885 27.9421 3.39877 27.5509 3.26769C27.1596 3.13662 26.7433 3.09813 26.3346 3.15526C25.926 3.21239 25.5361 3.36357 25.1958 3.59691C24.8555 3.83026 24.574 4.13939 24.3734 4.5H7.62672C7.42615 4.13939 7.14462 3.83026 6.8043 3.59691C6.46398 3.36357 6.07416 3.21239 5.6655 3.15526C5.25684 3.09813 4.84049 3.13662 4.44923 3.26769C4.05797 3.39877 3.70246 3.61885 3.41069 3.91063C3.11891 4.2024 2.89883 4.55791 2.76775 4.94917C2.63668 5.34043 2.59819 5.75678 2.65532 6.16543C2.71245 6.57409 2.86363 6.96392 3.09697 7.30424C3.33032 7.64456 3.63945 7.92609 4.00006 8.12666V24.8733C3.63945 25.0739 3.33032 25.3554 3.09697 25.6958C2.86363 26.0361 2.71245 26.4259 2.65532 26.8346C2.59819 27.2432 2.63668 27.6596 2.76775 28.0508C2.89883 28.4421 3.11891 28.7976 3.41069 29.0894C3.70246 29.3811 4.05797 29.6012 4.44923 29.7323C4.84049 29.8634 5.25684 29.9019 5.6655 29.8447C6.07416 29.7876 6.46398 29.6364 6.8043 29.4031C7.14462 29.1697 7.42615 28.8606 7.62672 28.5H24.3734C24.574 28.8606 24.8555 29.1697 25.1958 29.4031C25.5361 29.6364 25.926 29.7876 26.3346 29.8447C26.7433 29.9019 27.1596 29.8634 27.5509 29.7323C27.9421 29.6012 28.2977 29.3811 28.5894 29.0894C28.8812 28.7976 29.1013 28.4421 29.2324 28.0508C29.3634 27.6596 29.4019 27.2432 29.3448 26.8346C29.2877 26.4259 29.1365 26.0361 28.9031 25.6958C28.6698 25.3554 28.3607 25.0739 28.0001 24.8733ZM25.3334 24.8733C24.9324 25.1006 24.6006 25.4324 24.3734 25.8333H7.62672C7.39949 25.4324 7.0677 25.1006 6.66672 24.8733V8.12666C7.0677 7.89943 7.39949 7.56764 7.62672 7.16666H24.3734C24.6006 7.56764 24.9324 7.89943 25.3334 8.12666V24.8733Z" fill="#FC653C"/>
</svg>
