<svg width="32" height="33" viewBox="0 0 32 33" fill="none" xmlns="http://www.w3.org/2000/svg">
<path d="M27.3201 10.5267C27.3125 10.4915 27.3125 10.4552 27.3201 10.42C27.3136 10.3892 27.3136 10.3574 27.3201 10.3267V10.2067L27.2401 10.0067C27.2076 9.95209 27.1671 9.90266 27.1201 9.86L27.0001 9.75333H26.9334L21.6801 6.43333L16.7201 3.36667C16.6053 3.27564 16.474 3.20772 16.3334 3.16667H16.2268C16.1076 3.14678 15.9859 3.14678 15.8668 3.16667H15.7334C15.5785 3.20092 15.4301 3.25942 15.2934 3.34L5.33342 9.54L5.21342 9.63333L5.09342 9.74L4.96009 9.83333L4.89342 9.91333L4.81342 10.1133V10.2333V10.3133C4.80047 10.4018 4.80047 10.4916 4.81342 10.58V22.22C4.81297 22.4466 4.87027 22.6696 4.97992 22.8679C5.08957 23.0662 5.24794 23.2332 5.44009 23.3533L15.4401 29.54L15.6401 29.62H15.7468C15.9723 29.6915 16.2145 29.6915 16.4401 29.62H16.5468L16.7468 29.54L26.6668 23.4467C26.8589 23.3266 27.0173 23.1595 27.1269 22.9612C27.2366 22.7629 27.2939 22.5399 27.2934 22.3133V10.6733C27.2934 10.6733 27.3201 10.58 27.3201 10.5267ZM16.0001 6.06L18.3734 7.52667L10.9201 12.14L8.53342 10.6733L16.0001 6.06ZM14.6668 26.06L7.33342 21.58V13.06L14.6668 17.5933V26.06ZM16.0001 15.2467L13.4534 13.7133L20.9068 9.08667L23.4668 10.6733L16.0001 15.2467ZM24.6668 21.54L17.3334 26.1V17.5933L24.6668 13.06V21.54Z" fill="#FC653C"/>
</svg>
