<svg xmlns="http://www.w3.org/2000/svg" width="42" height="42" fill="none"><path d="m41.229 14.979-3.712-3.712a2.617 2.617 0 0 0-1.85-.767H31.5V6.562a3.939 3.939 0 0 0-3.938-3.937H14.438A3.939 3.939 0 0 0 10.5 6.563V10.5H6.337c-.697 0-1.363.277-1.856.769L.77 14.979A2.638 2.638 0 0 0 0 16.84v8.096h10.5v-2.625c0-.73.582-1.312 1.313-1.312h2.624c.73 0 1.313.582 1.313 1.313v2.625h10.5v-2.625c0-.73.582-1.313 1.313-1.313h2.625c.73 0 1.312.582 1.312 1.313v2.625H42V16.84a2.64 2.64 0 0 0-.771-1.862ZM27.563 10.5H14.438V6.562h13.124V10.5ZM31.5 30.188c0 .728-.584 1.312-1.313 1.312h-2.625a1.309 1.309 0 0 1-1.312-1.313v-2.625h-10.5v2.625c0 .73-.582 1.313-1.313 1.313h-2.624c-.73 0-1.313-.582-1.313-1.313v-2.625H0v9.188a2.63 2.63 0 0 0 2.625 2.625h36.75A2.63 2.63 0 0 0 42 36.75v-9.188H31.5v2.625Z" fill="#fff"/></svg>