<svg width="12" height="12" viewBox="0 0 12 12" fill="none" xmlns="http://www.w3.org/2000/svg">
<path d="M10.5286 3.59033C10.5332 3.69593 10.5332 3.79673 10.5332 3.90233C10.5378 7.10394 8.18559 10.8 3.88396 10.8C2.61524 10.8 1.36967 10.4207 0.300049 9.71035C0.485264 9.73435 0.670479 9.74395 0.855695 9.74395C1.90679 9.74395 2.93011 9.37915 3.75894 8.70234C2.75878 8.68314 1.87901 8.00634 1.5734 7.01754C1.92531 7.08954 2.28648 7.07514 2.62913 6.97434C1.54099 6.75354 0.758457 5.75993 0.753826 4.60313C0.753826 4.59353 0.753826 4.58393 0.753826 4.57433C1.07795 4.76153 1.44375 4.86713 1.81418 4.87673C0.790869 4.16633 0.471373 2.75033 1.09184 1.64152C2.28185 3.15833 4.03214 4.07513 5.91207 4.17593C5.72223 3.33593 5.98153 2.45272 6.58811 1.85752C7.52807 0.94072 9.0098 0.98872 9.89883 1.96312C10.4221 1.85752 10.9268 1.65592 11.3852 1.37272C11.2092 1.93432 10.8434 2.40952 10.3572 2.71193C10.8203 2.65432 11.2741 2.52472 11.7 2.33272C11.3852 2.82233 10.987 3.24473 10.5286 3.59033Z" fill="#BABABA"/>
</svg>
