<svg width="7" height="13" viewBox="0 0 7 13" fill="none" xmlns="http://www.w3.org/2000/svg">
<path d="M0.325867 1.09258C0.117152 1.30586 1.44406e-06 1.59438 1.40515e-06 1.89512C1.36624e-06 2.19585 0.117152 2.48437 0.325867 2.69765L4.29283 6.78432L0.325866 10.8141C0.117151 11.0274 1.86304e-07 11.3159 1.47395e-07 11.6166C1.08487e-07 11.9173 0.11715 12.2059 0.325865 12.4191C0.430041 12.5258 0.553981 12.6105 0.690538 12.6683C0.827095 12.7261 0.973565 12.7559 1.1215 12.7559C1.26943 12.7559 1.4159 12.7261 1.55246 12.6683C1.68902 12.6105 1.81296 12.5258 1.91713 12.4191L6.66853 7.59255C6.77356 7.48672 6.85693 7.36082 6.91382 7.2221C6.97071 7.08338 7 6.93459 7 6.78432C7 6.63404 6.97071 6.48526 6.91382 6.34654C6.85693 6.20782 6.77356 6.08192 6.66853 5.97609L1.91714 1.09258C1.81296 0.985886 1.68902 0.9012 1.55246 0.843407C1.41591 0.785615 1.26943 0.755859 1.1215 0.755859C0.973567 0.755859 0.827097 0.785615 0.69054 0.843407C0.553983 0.901199 0.430042 0.985885 0.325867 1.09258Z" fill="white"/>
</svg>
