<svg width="12" height="12" viewBox="0 0 12 12" fill="none" xmlns="http://www.w3.org/2000/svg">
<path d="M11.7528 3.11458C11.6144 2.60058 11.2092 2.19531 10.6952 2.05693C9.75614 1.79993 5.99997 1.79993 5.99997 1.79993C5.99997 1.79993 2.24381 1.79993 1.30477 2.04704C0.800656 2.18543 0.385501 2.60058 0.247116 3.11458C0 4.05362 0 6.0009 0 6.0009C0 6.0009 0 7.95805 0.247116 8.88721C0.385501 9.40121 0.790771 9.80648 1.30477 9.94487C2.2537 10.2019 5.99997 10.2019 5.99997 10.2019C5.99997 10.2019 9.75614 10.2019 10.6952 9.95475C11.2092 9.81637 11.6144 9.4111 11.7528 8.8971C11.9999 7.95805 11.9999 6.01078 11.9999 6.01078C11.9999 6.01078 12.0098 4.05362 11.7528 3.11458Z" fill="#BABABA"/>
<path d="M4.80396 7.79991L7.9275 6.00091L4.80396 4.2019V7.79991Z" fill="#484848"/>
</svg>
